<?xml version="1.0" encoding="UTF-8" standalone="no"?><!DOCTYPE svg PUBLIC "-//W3C//DTD SVG 1.1//EN" "http://www.w3.org/Graphics/SVG/1.1/DTD/svg11.dtd"><svg width="100%" height="100%" viewBox="0 0 295 136" version="1.1" xmlns="http://www.w3.org/2000/svg" xmlns:xlink="http://www.w3.org/1999/xlink" xml:space="preserve" style="fill-rule:evenodd;clip-rule:evenodd;stroke-linejoin:round;stroke-miterlimit:1.41421;"><g><g><clipPath id="_clip1"><path d="M155.941,-3.043l0,118.309l-173.937,0l0,-118.309l173.937,0ZM61.38,34.012l-39.87,0c-1.5,0 -2.718,1.218 -2.718,2.719l0.148,16.046l-13.815,0l-0.148,48.082c0,1.5 0.973,2.718 2.473,2.718l53.93,0c1.5,0 2.718,-1.218 2.718,-2.718l0,-64.128c0,-1.501 -1.218,-2.719 -2.718,-2.719Z"/></clipPath><g clip-path="url(#_clip1)"><path d="M77.567,96.024c0.332,0.657 0.295,1.435 -0.099,2.058c-0.394,0.623 -1.088,1.002 -1.836,1.002c-5.702,0 -16.969,0 -22.672,0c-0.747,0 -1.441,-0.379 -1.835,-1.002c-0.394,-0.623 -0.431,-1.401 -0.099,-2.058c2.172,-4.295 5.861,-11.591 5.861,-11.591l14.818,0c0,0 3.69,7.296 5.862,11.591Z" style="fill:#404040;"/><path d="M114.414,16.961c1.078,0 1.953,0.875 1.953,1.953l0,62.802c0,1.078 -0.875,1.953 -1.953,1.953l-100.235,0c-1.078,0 -1.953,-0.875 -1.953,-1.953l0,-62.802c0,-1.078 0.875,-1.953 1.953,-1.953l100.235,0ZM113.541,20.134l-98.489,0l0,51.061l98.489,0l0,-51.061Z" style="fill:#404040;"/><g><rect x="64.296" y="22.461" width="47.169" height="46.273" style="fill:#f7df1e;"/><path d="M95.982,58.612c0.95,1.522 2.186,2.641 4.372,2.641c1.837,0 3.01,-0.901 3.01,-2.145c0,-1.491 -1.206,-2.019 -3.227,-2.886l-1.108,-0.467c-3.199,-1.337 -5.323,-3.011 -5.323,-6.552c0,-3.261 2.532,-5.743 6.491,-5.743c2.818,0 4.844,0.962 6.304,3.481l-3.452,2.174c-0.759,-1.336 -1.579,-1.863 -2.852,-1.863c-1.298,0 -2.121,0.808 -2.121,1.863c0,1.305 0.823,1.833 2.725,2.641l1.108,0.465c3.766,1.585 5.892,3.2 5.892,6.831c0,3.915 -3.134,6.06 -7.344,6.06c-4.117,0 -6.776,-1.925 -8.077,-4.447l3.602,-2.053ZM80.324,58.989c0.696,1.212 1.33,2.237 2.853,2.237c1.456,0 2.374,-0.559 2.374,-2.733l0,-14.785l4.433,0l0,14.844c0,4.502 -2.691,6.552 -6.619,6.552c-3.549,0 -5.604,-1.802 -6.649,-3.972l3.608,-2.143Z" style="fill:#000;fill-rule:nonzero;"/></g></g></g><g><clipPath id="_clip2"><path d="M149.375,-0.627l0,115.728l-154.859,0l0,-115.728l154.859,0ZM29.919,52.821l-22.288,0c-1.259,0 -2.282,1.022 -2.282,2.282l0,44.062c0,1.259 1.023,2.282 2.282,2.282l22.288,0c1.26,0 2.282,-1.023 2.282,-2.282l0,-44.062c0,-1.26 -1.022,-2.282 -2.282,-2.282Z"/></clipPath><g clip-path="url(#_clip2)"><path d="M60.079,99.095l-37.475,0c-1.078,0 -1.953,-0.875 -1.953,-1.953l0,-59.632c0,-1.078 0.875,-1.953 1.953,-1.953l37.475,0c1.078,0 1.953,0.875 1.953,1.953l0,59.632c0,1.078 -0.875,1.953 -1.953,1.953ZM41.342,93.018c1.192,0 2.159,0.949 2.159,2.118c0,1.17 -0.967,2.119 -2.159,2.119c-1.192,0 -2.16,-0.949 -2.16,-2.119c0,-1.169 0.968,-2.118 2.16,-2.118ZM59.332,41.735l-35.98,0l0,49.388l35.98,0l0,-49.388Z" style="fill:#404040;"/></g></g><g><path d="M28.477,54.359c1.078,0 1.953,0.875 1.953,1.953l0,40.819c0,1.078 -0.875,1.953 -1.953,1.953l-19.074,0c-1.078,0 -1.953,-0.875 -1.953,-1.953l0,-40.819c0,-1.078 0.875,-1.953 1.953,-1.953l19.074,0ZM18.94,94.867c0.894,0 1.62,0.712 1.62,1.589c0,0.877 -0.726,1.589 -1.62,1.589c-0.894,0 -1.62,-0.712 -1.62,-1.589c0,-0.877 0.726,-1.589 1.62,-1.589ZM29.629,58.05l-21.378,0l0,35.701l21.378,0l0,-35.701ZM21.448,56.204c0,-0.17 -0.138,-0.308 -0.308,-0.308l-4.4,0c-0.17,0 -0.308,0.138 -0.308,0.308l0,0.231c0,0.17 0.138,0.308 0.308,0.308l4.4,0c0.17,0 0.308,-0.138 0.308,-0.308l0,-0.231Z" style="fill:#404040;"/></g></g><g transform="matrix(0.366911,0,1.18329e-32,0.366911,-218.259,7.03172)"><text x="610.733px" y="333.307px" style="font-family:'RobotoSlab-Regular', 'Roboto Slab';font-size:124.481px;fill:#404040;">m</text><text x="722.759px" y="333.307px" style="font-family:'RobotoSlab-Regular', 'Roboto Slab';font-size:124.481px;fill:#404040;">e</text><text x="788.435px" y="333.307px" style="font-family:'RobotoSlab-Regular', 'Roboto Slab';font-size:124.481px;fill:#404040;">d</text><text x="863.135px" y="333.307px" style="font-family:'RobotoSlab-Regular', 'Roboto Slab';font-size:124.481px;fill:#404040;">i</text><text x="901.552px" y="333.307px" style="font-family:'RobotoSlab-Regular', 'Roboto Slab';font-size:124.481px;fill:#404040;">a</text><text x="971.358px" y="333.307px" style="font-family:'RobotoSlab-Regular', 'Roboto Slab';font-size:124.481px;fill:#404040;">-</text><text x="1021.05px" y="333.307px" style="font-family:'RobotoSlab-Regular', 'Roboto Slab';font-size:124.481px;fill:#404040;">e</text><text x="1082.2px" y="333.307px" style="font-family:'RobotoSlab-Regular', 'Roboto Slab';font-size:124.481px;fill:#404040;">v</text><text x="1144.66px" y="333.307px" style="font-family:'RobotoSlab-Regular', 'Roboto Slab';font-size:124.481px;fill:#404040;">e</text><text x="1207.84px" y="333.307px" style="font-family:'RobotoSlab-Regular', 'Roboto Slab';font-size:124.481px;fill:#404040;">n</text><text x="1280.48px" y="333.307px" style="font-family:'RobotoSlab-Regular', 'Roboto Slab';font-size:124.481px;fill:#404040;">t</text><text x="1321.09px" y="333.307px" style="font-family:'RobotoSlab-Regular', 'Roboto Slab';font-size:124.481px;fill:#404040;">s</text></g></svg>